<svg id="svg" version="1.1" xmlns="http://www.w3.org/2000/svg" xmlns:xlink="http://www.w3.org/1999/xlink" width="400" height="400" viewBox="0, 0, 400,400"><g id="svgg"><path id="path0" d="M162.700 63.482 C 163.195 63.578,164.005 63.578,164.500 63.482 C 164.995 63.387,164.590 63.309,163.600 63.309 C 162.610 63.309,162.205 63.387,162.700 63.482 M253.530 63.500 C 263.062 63.560,278.542 63.560,287.930 63.500 C 297.319 63.440,289.520 63.391,270.600 63.391 C 251.680 63.391,243.999 63.440,253.530 63.500 M128.317 68.700 C 126.449 70.625,120.009 77.420,114.006 83.800 C 108.004 90.180,102.442 96.036,101.647 96.814 C 100.851 97.591,98.445 100.157,96.300 102.516 L 92.400 106.804 92.400 124.802 C 92.400 134.701,92.535 142.800,92.700 142.801 C 92.865 142.802,94.350 141.407,96.000 139.701 C 98.368 137.253,124.861 111.091,143.797 92.500 L 146.751 89.600 203.333 89.600 C 254.042 89.600,259.939 89.664,260.152 90.219 C 260.319 90.655,255.020 96.253,242.295 109.084 C 232.343 119.119,221.230 130.327,217.600 133.990 C 213.970 137.654,195.790 155.995,177.200 174.750 C 158.610 193.504,139.647 212.663,135.060 217.324 C 130.473 221.986,119.133 233.450,109.860 242.800 L 93.000 259.800 93.108 278.537 L 93.216 297.275 159.156 231.137 C 286.699 103.214,323.801 65.934,323.933 65.569 C 324.014 65.344,286.377 65.200,227.891 65.200 L 131.715 65.200 128.317 68.700 M265.526 145.823 C 241.917 169.485,210.923 200.580,196.651 214.923 C 182.380 229.265,149.735 262.025,124.108 287.723 C 98.480 313.421,77.618 334.552,77.748 334.681 C 77.877 334.810,121.138 334.884,173.883 334.845 L 269.783 334.775 270.938 333.687 C 271.573 333.089,275.077 329.450,278.723 325.600 C 285.887 318.036,295.476 308.008,303.887 299.284 L 309.174 293.800 309.187 275.438 L 309.200 257.076 304.900 261.194 C 302.535 263.459,299.329 266.591,297.776 268.156 C 296.223 269.720,286.141 279.683,275.372 290.296 L 255.790 309.593 198.995 309.614 C 152.816 309.632,142.180 309.539,142.092 309.118 C 142.032 308.833,146.802 303.714,152.692 297.742 C 164.701 285.566,219.290 230.442,249.860 199.624 C 260.893 188.501,278.662 170.580,289.348 159.800 L 308.775 140.200 308.788 121.500 C 308.794 111.215,308.722 102.800,308.626 102.800 C 308.531 102.800,289.136 122.160,265.526 145.823 M310.951 270.800 C 310.951 273.330,311.016 274.365,311.096 273.100 C 311.175 271.835,311.175 269.765,311.096 268.500 C 311.016 267.235,310.951 268.270,310.951 270.800 M310.920 291.600 C 310.920 292.810,310.995 293.305,311.087 292.700 C 311.178 292.095,311.178 291.105,311.087 290.500 C 310.995 289.895,310.920 290.390,310.920 291.600 " stroke="none" fill="#f36b34" fill-rule="evenodd"></path><path id="path1" d="M131.035 63.542 C 130.395 63.918,129.675 64.564,129.435 64.977 C 129.196 65.389,125.805 68.945,121.900 72.877 C 117.995 76.809,114.800 80.204,114.800 80.422 C 114.800 80.640,111.920 83.690,108.400 87.200 C 104.880 90.710,102.000 93.774,102.000 94.009 C 102.000 94.563,100.399 96.161,99.499 96.507 C 99.115 96.654,98.800 96.967,98.800 97.201 C 98.800 97.436,97.000 99.415,94.800 101.600 L 90.800 105.572 90.800 124.815 C 90.800 144.734,90.836 145.200,92.377 145.200 C 92.616 145.200,97.486 140.520,103.200 134.800 C 108.914 129.080,113.735 124.400,113.913 124.400 C 114.315 124.400,117.200 121.477,117.200 121.070 C 117.200 120.642,119.904 118.000,120.342 118.000 C 120.545 118.000,126.678 112.060,133.970 104.800 L 147.228 91.600 201.814 91.600 C 231.836 91.600,256.400 91.684,256.400 91.786 C 256.400 91.888,254.600 93.802,252.400 96.039 C 250.200 98.277,248.400 100.271,248.400 100.472 C 248.400 100.907,246.563 102.800,246.140 102.800 C 245.736 102.800,243.600 104.873,243.600 105.265 C 243.600 105.438,226.860 122.336,206.400 142.815 C 185.940 163.294,169.200 180.227,169.200 180.443 C 169.200 180.923,167.368 182.800,166.899 182.800 C 166.497 182.800,163.600 185.711,163.600 186.115 C 163.600 186.270,147.580 202.420,128.000 222.004 C 108.420 241.589,92.400 257.880,92.400 258.206 C 92.400 258.533,92.220 258.800,92.000 258.800 C 91.739 258.800,91.600 265.268,91.600 277.405 C 91.600 291.200,91.476 296.210,91.119 296.781 C 90.444 297.862,91.393 299.600,92.659 299.600 C 93.542 299.600,158.000 235.579,158.000 234.703 C 158.000 234.244,160.689 231.600,161.155 231.600 C 161.653 231.600,165.200 228.053,165.200 227.555 C 165.200 227.008,167.616 224.698,168.859 224.056 C 169.438 223.757,170.157 223.040,170.456 222.462 C 171.051 221.314,174.616 217.655,175.803 216.973 C 176.212 216.739,176.739 216.212,176.973 215.803 C 177.515 214.859,181.487 210.800,181.869 210.800 C 182.278 210.800,184.400 208.717,184.400 208.316 C 184.400 207.833,188.508 203.798,189.316 203.487 C 189.692 203.343,190.000 203.039,190.000 202.812 C 190.000 202.584,220.780 171.619,258.400 134.000 C 312.886 79.516,326.800 65.398,326.800 64.601 L 326.800 63.600 281.600 63.600 C 251.733 63.600,236.400 63.464,236.400 63.200 C 236.400 62.936,224.267 62.800,200.800 62.800 C 177.333 62.800,165.200 62.936,165.200 63.200 C 165.200 63.420,164.480 63.600,163.600 63.600 C 162.720 63.600,162.000 63.420,162.000 63.200 C 162.000 62.413,132.402 62.740,131.035 63.542 M325.082 65.047 C 325.250 65.551,321.839 68.992,209.908 181.200 C 165.468 225.750,128.954 262.380,128.765 262.600 C 126.893 264.780,93.490 298.000,93.170 298.000 C 92.949 298.000,92.788 290.620,92.770 279.700 C 92.754 269.635,92.663 260.984,92.569 260.475 C 92.365 259.374,92.080 259.669,135.455 216.036 C 152.205 199.186,170.025 181.191,175.055 176.047 C 180.085 170.902,199.050 151.743,217.200 133.470 C 235.350 115.197,252.225 98.203,254.700 95.704 C 258.954 91.410,260.011 90.003,258.567 90.557 C 258.219 90.691,232.884 90.801,202.267 90.801 L 146.600 90.803 136.800 100.414 C 131.410 105.700,119.282 117.624,109.849 126.912 C 100.417 136.201,92.497 143.800,92.249 143.800 C 91.925 143.800,91.771 138.582,91.696 124.989 L 91.592 106.178 97.496 100.119 C 103.253 94.211,114.199 82.739,119.775 76.771 C 121.301 75.137,124.603 71.685,127.113 69.099 L 131.676 64.398 228.304 64.499 C 299.104 64.573,324.973 64.720,325.082 65.047 M308.400 100.800 C 308.400 101.020,308.143 101.200,307.830 101.200 C 307.199 101.200,282.000 126.238,282.000 126.865 C 282.000 127.384,280.967 128.400,280.440 128.400 C 279.831 128.400,274.800 133.630,274.800 134.263 C 274.800 134.558,274.561 134.800,274.269 134.800 C 273.703 134.800,269.200 139.153,269.200 139.701 C 269.200 140.129,266.523 142.800,266.095 142.800 C 265.687 142.800,262.800 145.718,262.800 146.130 C 262.800 146.535,260.107 149.200,259.698 149.200 C 259.290 149.200,255.600 152.916,255.600 153.327 C 255.600 153.740,252.906 156.400,252.488 156.400 C 252.084 156.400,250.000 158.520,250.000 158.931 C 250.000 159.380,245.846 163.420,245.084 163.713 C 244.708 163.857,244.400 164.158,244.400 164.382 C 244.400 164.606,207.680 201.517,162.800 246.407 C 117.920 291.296,81.200 328.289,81.200 328.612 C 81.200 328.935,80.914 329.200,80.565 329.200 C 79.309 329.200,75.600 333.573,75.600 335.054 L 75.600 336.400 173.443 336.400 L 271.287 336.400 273.039 334.500 C 274.003 333.455,274.793 332.466,274.796 332.302 C 274.798 332.138,278.580 328.218,283.200 323.591 C 287.820 318.963,291.600 315.003,291.600 314.791 C 291.600 314.578,294.660 311.337,298.400 307.588 C 302.140 303.840,305.200 300.590,305.200 300.367 C 305.200 300.144,306.460 298.719,308.000 297.200 L 310.800 294.439 310.800 274.619 L 310.800 254.800 309.796 254.800 C 309.009 254.800,305.680 257.913,294.400 269.200 C 286.484 277.120,279.865 283.600,279.689 283.600 C 279.278 283.600,275.600 287.326,275.600 287.742 C 275.600 288.191,274.532 289.200,274.057 289.200 C 273.838 289.200,269.323 293.520,264.025 298.800 L 254.392 308.400 199.796 308.400 C 169.768 308.400,145.200 308.316,145.200 308.214 C 145.200 308.111,151.320 301.876,158.800 294.359 C 166.280 286.842,172.400 280.527,172.400 280.327 C 172.400 279.892,174.238 278.000,174.660 278.000 C 175.075 278.000,177.200 275.922,177.200 275.516 C 177.200 275.110,181.467 270.800,181.869 270.800 C 182.268 270.800,184.400 268.722,184.400 268.333 C 184.400 268.159,198.080 254.323,214.800 237.587 C 231.520 220.851,245.200 206.979,245.200 206.760 C 245.200 206.255,247.040 204.400,247.542 204.400 C 248.029 204.400,250.800 201.637,250.800 201.151 C 250.800 200.642,254.876 196.610,255.716 196.287 C 256.092 196.143,256.400 195.840,256.400 195.613 C 256.400 195.387,268.640 182.959,283.600 167.997 L 310.800 140.793 310.800 121.168 C 310.800 104.693,310.708 101.451,310.229 100.971 C 309.573 100.316,308.400 100.206,308.400 100.800 M310.000 120.848 L 310.000 140.096 279.900 170.317 C 244.769 205.589,239.963 210.437,226.648 224.036 C 221.174 229.626,202.364 248.616,184.848 266.236 C 148.669 302.628,142.800 308.607,142.800 309.071 C 142.800 309.252,168.100 309.351,199.023 309.291 L 255.246 309.181 257.923 306.479 C 259.395 304.993,264.380 300.119,269.000 295.647 C 273.620 291.176,284.559 280.381,293.309 271.659 C 305.965 259.044,309.297 255.923,309.603 256.400 C 309.835 256.761,309.990 264.302,309.994 275.343 L 310.000 293.686 303.516 300.543 C 299.950 304.314,294.505 310.030,291.416 313.244 C 288.327 316.459,282.290 322.792,278.000 327.319 L 270.200 335.550 173.685 335.569 C 87.592 335.585,77.145 335.522,76.936 334.978 C 76.664 334.268,72.116 338.865,190.903 219.800 C 238.751 171.840,284.844 125.625,293.330 117.100 C 301.817 108.575,309.039 101.600,309.380 101.600 C 309.931 101.600,310.000 103.733,310.000 120.848 " stroke="none" fill="#99492a" fill-rule="evenodd"></path><path id="path2" d="M228.200 64.700 C 281.330 64.756,324.800 64.945,324.800 65.120 C 324.800 65.295,314.135 76.155,301.100 89.253 C 288.065 102.351,277.051 113.502,276.624 114.034 C 276.198 114.565,286.958 103.855,300.536 90.234 C 314.114 76.613,325.158 65.273,325.078 65.034 C 324.975 64.724,297.414 64.600,228.267 64.599 L 131.600 64.598 228.200 64.700 M120.725 75.694 C 118.596 77.946,116.908 79.841,116.973 79.907 C 117.111 80.045,122.197 74.818,123.791 72.900 C 125.756 70.535,124.647 71.546,120.725 75.694 M106.623 90.444 C 104.716 92.449,103.244 94.177,103.353 94.286 C 103.462 94.395,104.147 93.794,104.875 92.950 C 105.604 92.107,106.745 90.873,107.410 90.208 C 109.154 88.468,110.576 86.800,110.315 86.800 C 110.192 86.800,108.530 88.440,106.623 90.444 M148.580 90.318 L 146.559 90.436 139.933 96.918 C 136.288 100.483,131.384 105.266,129.033 107.547 C 126.683 109.827,124.831 111.764,124.917 111.850 C 125.004 111.937,129.918 107.239,135.837 101.411 L 146.600 90.814 202.800 90.707 C 233.710 90.648,259.078 90.648,259.173 90.706 C 259.268 90.764,258.728 91.484,257.973 92.306 L 256.601 93.800 258.293 92.226 C 259.224 91.360,259.909 90.576,259.816 90.483 C 259.626 90.293,151.743 90.133,148.580 90.318 M251.793 98.407 C 250.937 99.283,250.370 100.000,250.532 100.000 C 250.940 100.000,253.719 97.186,253.514 96.981 C 253.423 96.889,252.648 97.531,251.793 98.407 M94.100 103.646 L 91.600 106.077 91.600 124.815 C 91.600 143.519,91.696 144.870,92.935 143.621 C 93.290 143.264,93.234 143.216,92.700 143.419 C 92.040 143.671,92.000 142.628,92.000 124.954 L 92.000 106.222 94.488 103.711 C 97.672 100.498,97.386 100.451,94.100 103.646 M309.696 121.222 L 309.600 139.843 300.239 149.297 C 295.090 154.497,290.015 159.707,288.961 160.876 C 287.906 162.044,292.211 157.832,298.526 151.515 L 310.008 140.030 309.900 121.315 L 309.792 102.600 309.696 121.222 M304.991 105.209 C 303.912 106.304,303.135 107.200,303.262 107.200 C 303.585 107.200,307.245 103.511,307.083 103.350 C 307.011 103.277,306.069 104.114,304.991 105.209 M298.400 111.800 C 297.428 112.790,296.766 113.600,296.927 113.600 C 297.089 113.600,298.031 112.790,299.021 111.800 C 300.011 110.810,300.674 110.000,300.494 110.000 C 300.314 110.000,299.372 110.810,298.400 111.800 M121.690 114.712 C 119.340 117.187,119.783 117.254,122.209 114.791 C 123.288 113.696,123.997 112.825,123.785 112.855 C 123.573 112.885,122.630 113.721,121.690 114.712 M271.988 118.700 L 269.400 121.400 272.100 118.812 C 273.585 117.388,274.800 116.173,274.800 116.112 C 274.800 115.817,274.393 116.192,271.988 118.700 M291.793 118.407 C 290.937 119.283,290.370 120.000,290.532 120.000 C 290.940 120.000,293.719 117.186,293.514 116.981 C 293.423 116.889,292.648 117.531,291.793 118.407 M114.860 121.442 C 114.562 121.778,114.399 122.132,114.495 122.229 C 114.592 122.326,114.998 122.044,115.398 121.602 C 115.797 121.161,115.961 120.807,115.762 120.815 C 115.563 120.824,115.157 121.105,114.860 121.442 M227.978 122.700 L 226.600 124.200 228.100 122.822 C 229.496 121.538,229.784 121.200,229.478 121.200 C 229.412 121.200,228.737 121.875,227.978 122.700 M265.186 125.500 L 263.000 127.800 265.300 125.614 C 266.565 124.411,267.600 123.376,267.600 123.314 C 267.600 123.017,267.218 123.363,265.186 125.500 M284.996 125.204 C 284.366 125.862,283.982 126.400,284.143 126.400 C 284.556 126.400,286.522 124.388,286.313 124.180 C 286.219 124.086,285.626 124.546,284.996 125.204 M222.000 128.600 C 221.028 129.590,220.323 130.400,220.433 130.400 C 220.543 130.400,221.428 129.590,222.400 128.600 C 223.372 127.610,224.077 126.800,223.967 126.800 C 223.857 126.800,222.972 127.610,222.000 128.600 M258.388 132.300 L 255.800 135.000 258.500 132.412 C 259.985 130.988,261.200 129.773,261.200 129.712 C 261.200 129.417,260.793 129.792,258.388 132.300 M279.002 131.198 C 278.603 131.639,278.407 132.000,278.567 132.000 C 278.988 132.000,280.128 130.795,279.912 130.579 C 279.811 130.478,279.402 130.756,279.002 131.198 M215.178 135.500 L 213.800 137.000 215.300 135.622 C 216.696 134.338,216.984 134.000,216.678 134.000 C 216.612 134.000,215.937 134.675,215.178 135.500 M251.988 138.700 L 249.400 141.400 252.100 138.812 C 253.585 137.388,254.800 136.173,254.800 136.112 C 254.800 135.817,254.393 136.192,251.988 138.700 M198.254 152.451 C 189.957 160.839,183.238 167.772,183.324 167.857 C 183.409 167.943,186.432 165.005,190.040 161.328 C 193.648 157.651,199.390 151.837,202.800 148.408 C 210.029 141.138,213.799 137.200,213.531 137.200 C 213.426 137.200,206.552 144.063,198.254 152.451 M97.178 139.100 L 95.800 140.600 97.300 139.222 C 98.696 137.938,98.984 137.600,98.678 137.600 C 98.612 137.600,97.937 138.275,97.178 139.100 M245.186 145.500 L 243.000 147.800 245.300 145.614 C 246.565 144.411,247.600 143.376,247.600 143.314 C 247.600 143.017,247.218 143.363,245.186 145.500 M238.400 152.200 C 237.428 153.190,236.723 154.000,236.833 154.000 C 236.943 154.000,237.828 153.190,238.800 152.200 C 239.772 151.210,240.477 150.400,240.367 150.400 C 240.257 150.400,239.372 151.210,238.400 152.200 M284.800 165.000 C 283.828 165.990,283.123 166.800,283.233 166.800 C 283.343 166.800,284.228 165.990,285.200 165.000 C 286.172 164.010,286.877 163.200,286.767 163.200 C 286.657 163.200,285.772 164.010,284.800 165.000 M178.589 172.411 C 177.067 173.945,175.922 175.200,176.044 175.200 C 176.349 175.200,181.631 169.897,181.478 169.745 C 181.411 169.678,180.111 170.878,178.589 172.411 M278.400 171.400 C 277.428 172.390,276.723 173.200,276.833 173.200 C 276.943 173.200,277.828 172.390,278.800 171.400 C 279.772 170.410,280.477 169.600,280.367 169.600 C 280.257 169.600,279.372 170.410,278.400 171.400 M172.191 178.809 C 171.112 179.904,170.363 180.800,170.526 180.800 C 170.930 180.800,174.518 177.184,174.314 176.981 C 174.225 176.892,173.269 177.714,172.191 178.809 M208.400 202.200 C 207.428 203.190,206.723 204.000,206.833 204.000 C 206.943 204.000,207.828 203.190,208.800 202.200 C 209.772 201.210,210.477 200.400,210.367 200.400 C 210.257 200.400,209.372 201.210,208.400 202.200 M248.060 201.851 C 247.543 202.402,247.196 202.929,247.289 203.022 C 247.382 203.115,247.974 202.654,248.604 201.996 C 249.234 201.338,249.581 200.811,249.375 200.824 C 249.169 200.838,248.577 201.300,248.060 201.851 M202.000 208.600 C 201.028 209.590,200.323 210.400,200.433 210.400 C 200.543 210.400,201.428 209.590,202.400 208.600 C 203.372 207.610,204.077 206.800,203.967 206.800 C 203.857 206.800,202.972 207.610,202.000 208.600 M241.283 208.701 C 239.443 210.657,239.908 210.738,241.807 208.793 C 242.663 207.917,243.191 207.223,242.981 207.251 C 242.772 207.279,242.008 207.931,241.283 208.701 M142.378 209.100 L 141.000 210.600 142.500 209.222 C 143.896 207.938,144.184 207.600,143.878 207.600 C 143.812 207.600,143.137 208.275,142.378 209.100 M231.400 218.655 C 228.760 221.395,223.177 227.094,218.993 231.319 C 214.809 235.543,209.513 240.980,207.224 243.400 C 204.934 245.820,208.923 241.915,216.088 234.723 C 232.395 218.351,237.018 213.590,236.560 213.636 C 236.362 213.656,234.040 215.915,231.400 218.655 M195.178 215.500 L 193.800 217.000 195.300 215.622 C 196.696 214.338,196.984 214.000,196.678 214.000 C 196.612 214.000,195.937 214.675,195.178 215.500 M118.241 233.249 C 109.949 241.636,103.234 248.567,103.319 248.652 C 103.404 248.737,105.641 246.600,108.291 243.903 C 116.037 236.020,129.045 222.794,131.506 220.300 C 132.754 219.035,133.672 218.000,133.546 218.000 C 133.420 218.000,126.532 224.862,118.241 233.249 M188.400 222.200 C 187.428 223.190,186.723 224.000,186.833 224.000 C 186.943 224.000,187.828 223.190,188.800 222.200 C 189.772 221.210,190.477 220.400,190.367 220.400 C 190.257 220.400,189.372 221.210,188.400 222.200 M144.168 266.535 C 108.299 302.555,98.060 312.963,105.740 305.600 C 107.232 304.170,112.265 299.157,116.926 294.460 C 121.587 289.764,135.098 276.174,146.952 264.260 C 177.169 233.891,184.170 226.800,183.939 226.800 C 183.827 226.800,165.931 244.681,144.168 266.535 M162.060 228.642 C 161.762 228.978,161.599 229.332,161.695 229.429 C 161.792 229.526,162.198 229.244,162.598 228.802 C 162.997 228.361,163.161 228.007,162.962 228.015 C 162.763 228.024,162.357 228.305,162.060 228.642 M148.834 242.153 L 147.869 243.400 149.013 242.312 C 149.643 241.714,150.077 241.153,149.979 241.065 C 149.880 240.977,149.365 241.467,148.834 242.153 M142.083 248.743 C 141.359 249.489,140.832 250.165,140.911 250.244 C 140.990 250.323,141.660 249.763,142.400 249.000 C 143.140 248.237,143.668 247.561,143.573 247.499 C 143.478 247.436,142.808 247.996,142.083 248.743 M99.378 252.511 L 96.600 255.400 99.390 252.800 C 100.924 251.370,102.259 250.155,102.356 250.100 C 102.454 250.045,102.448 249.915,102.345 249.811 C 102.241 249.708,100.906 250.923,99.378 252.511 M198.388 252.300 L 195.800 255.000 198.500 252.412 C 201.008 250.007,201.383 249.600,201.088 249.600 C 201.027 249.600,199.812 250.815,198.388 252.300 M135.274 255.482 C 134.764 256.031,134.417 256.550,134.503 256.636 C 134.588 256.722,135.174 256.254,135.804 255.596 C 136.434 254.938,136.781 254.419,136.575 254.442 C 136.369 254.465,135.783 254.934,135.274 255.482 M191.988 258.700 L 189.400 261.400 192.100 258.812 C 194.608 256.407,194.983 256.000,194.688 256.000 C 194.627 256.000,193.412 257.215,191.988 258.700 M304.194 260.875 C 301.557 263.556,300.120 265.121,301.000 264.352 C 301.880 263.583,303.935 261.569,305.568 259.877 C 309.939 255.344,309.586 254.007,309.696 275.500 L 309.792 294.200 309.907 276.000 C 310.018 258.493,309.940 256.000,309.286 256.000 C 309.122 256.000,306.830 258.194,304.194 260.875 M93.796 258.004 C 93.166 258.662,92.782 259.200,92.943 259.200 C 93.356 259.200,95.322 257.188,95.113 256.980 C 95.019 256.886,94.426 257.346,93.796 258.004 M128.099 262.657 C 126.329 264.472,126.258 265.050,128.000 263.465 C 129.469 262.128,130.577 260.792,130.162 260.857 C 129.963 260.888,129.035 261.698,128.099 262.657 M114.400 276.466 C 97.161 293.993,95.511 295.647,94.045 296.870 C 93.300 297.491,92.882 298.000,93.117 298.000 C 93.352 298.000,100.248 291.295,108.441 283.100 C 124.512 267.025,126.690 264.780,126.151 264.838 C 125.958 264.859,120.670 270.092,114.400 276.466 M161.878 289.013 C 161.260 289.556,160.914 290.000,161.108 290.000 C 161.302 290.000,161.883 289.550,162.400 289.000 C 163.595 287.728,163.331 287.734,161.878 289.013 M272.077 292.522 C 270.934 293.679,270.000 294.758,270.000 294.921 C 270.000 295.084,271.007 294.210,272.238 292.980 C 273.468 291.749,274.403 290.670,274.314 290.581 C 274.226 290.492,273.219 291.366,272.077 292.522 M154.888 295.848 C 154.166 296.592,153.725 297.200,153.909 297.200 C 154.093 297.200,154.854 296.570,155.600 295.800 C 156.346 295.030,156.787 294.422,156.578 294.448 C 156.370 294.474,155.609 295.104,154.888 295.848 M261.848 302.630 L 255.100 309.197 200.050 309.300 L 145.000 309.403 200.200 309.501 L 255.400 309.600 262.103 302.936 C 265.789 299.271,268.758 296.225,268.701 296.167 C 268.643 296.110,265.559 299.018,261.848 302.630 M151.459 299.348 C 150.612 300.257,148.227 302.728,146.159 304.841 C 144.092 306.954,142.400 308.916,142.400 309.201 C 142.400 309.486,142.913 309.018,143.539 308.160 C 144.165 307.302,145.650 305.701,146.839 304.602 C 149.575 302.072,153.357 298.019,153.154 297.836 C 153.069 297.759,152.307 298.439,151.459 299.348 M299.907 303.747 C 298.426 305.317,296.914 307.051,296.546 307.601 C 296.178 308.150,296.047 308.420,296.255 308.200 C 296.463 307.980,298.143 306.225,299.988 304.300 C 301.832 302.375,303.175 300.821,302.971 300.847 C 302.767 300.873,301.388 302.178,299.907 303.747 M98.589 312.411 C 97.067 313.945,95.922 315.200,96.044 315.200 C 96.349 315.200,101.631 309.897,101.478 309.745 C 101.411 309.678,100.111 310.878,98.589 312.411 M92.189 318.811 C 90.667 320.345,89.522 321.600,89.644 321.600 C 89.949 321.600,95.231 316.297,95.078 316.145 C 95.011 316.078,93.711 317.278,92.189 318.811 M284.791 319.713 C 284.246 320.408,282.546 322.332,281.013 323.988 C 279.481 325.645,278.912 326.370,279.749 325.600 C 281.807 323.708,286.146 318.812,285.944 318.611 C 285.855 318.522,285.336 319.017,284.791 319.713 M85.390 325.610 C 84.089 326.925,83.127 328.000,83.252 328.000 C 83.564 328.000,88.036 323.503,87.880 323.347 C 87.811 323.278,86.690 324.296,85.390 325.610 M78.990 332.010 C 77.689 333.325,76.762 334.400,76.930 334.400 C 77.308 334.400,81.683 329.950,81.493 329.759 C 81.416 329.683,80.290 330.696,78.990 332.010 M270.760 334.426 C 270.144 335.185,268.451 335.200,174.767 335.300 L 79.400 335.402 174.838 335.501 C 269.928 335.600,270.279 335.597,271.002 334.798 C 271.402 334.356,271.652 333.918,271.558 333.824 C 271.464 333.730,271.105 334.001,270.760 334.426 " stroke="none" fill="#c3592f" fill-rule="evenodd"></path><path id="path3" d="M308.175 82.100 L 307.000 83.400 308.300 82.225 C 309.015 81.579,309.600 80.994,309.600 80.925 C 309.600 80.616,309.270 80.888,308.175 82.100 M301.775 88.500 L 300.600 89.800 301.900 88.625 C 302.615 87.979,303.200 87.394,303.200 87.325 C 303.200 87.016,302.870 87.288,301.775 88.500 M147.900 90.282 C 148.395 90.378,149.205 90.378,149.700 90.282 C 150.195 90.187,149.790 90.109,148.800 90.109 C 147.810 90.109,147.405 90.187,147.900 90.282 M154.100 90.298 C 156.025 90.371,159.175 90.371,161.100 90.298 C 163.025 90.225,161.450 90.165,157.600 90.165 C 153.750 90.165,152.175 90.225,154.100 90.298 M185.700 90.300 C 197.305 90.359,216.295 90.359,227.900 90.300 C 239.505 90.241,230.010 90.193,206.800 90.193 C 183.590 90.193,174.095 90.241,185.700 90.300 M255.300 90.287 C 255.905 90.378,256.895 90.378,257.500 90.287 C 258.105 90.195,257.610 90.120,256.400 90.120 C 255.190 90.120,254.695 90.195,255.300 90.287 M144.581 92.100 L 143.000 93.800 144.700 92.219 C 146.281 90.748,146.584 90.400,146.281 90.400 C 146.216 90.400,145.451 91.165,144.581 92.100 M134.575 102.100 L 133.400 103.400 134.700 102.225 C 135.912 101.130,136.184 100.800,135.875 100.800 C 135.806 100.800,135.221 101.385,134.575 102.100 M93.785 104.500 L 91.800 106.600 93.900 104.615 C 95.851 102.771,96.183 102.400,95.885 102.400 C 95.822 102.400,94.877 103.345,93.785 104.500 M271.787 118.500 L 269.400 121.000 271.900 118.613 C 273.275 117.299,274.400 116.174,274.400 116.113 C 274.400 115.817,274.005 116.178,271.787 118.500 M265.200 125.000 C 264.228 125.990,263.523 126.800,263.633 126.800 C 263.743 126.800,264.628 125.990,265.600 125.000 C 266.572 124.010,267.277 123.200,267.167 123.200 C 267.057 123.200,266.172 124.010,265.200 125.000 M258.400 131.800 C 257.428 132.790,256.723 133.600,256.833 133.600 C 256.943 133.600,257.828 132.790,258.800 131.800 C 259.772 130.810,260.477 130.000,260.367 130.000 C 260.257 130.000,259.372 130.810,258.400 131.800 M215.375 135.700 L 214.200 137.000 215.500 135.825 C 216.215 135.179,216.800 134.594,216.800 134.525 C 216.800 134.216,216.470 134.488,215.375 135.700 M301.381 148.100 L 299.800 149.800 301.500 148.219 C 303.081 146.748,303.384 146.400,303.081 146.400 C 303.016 146.400,302.251 147.165,301.381 148.100 M198.585 152.500 L 196.600 154.600 198.700 152.615 C 199.855 151.523,200.800 150.578,200.800 150.515 C 200.800 150.217,200.429 150.549,198.585 152.500 M284.581 164.900 L 283.000 166.600 284.700 165.019 C 286.281 163.548,286.584 163.200,286.281 163.200 C 286.216 163.200,285.451 163.965,284.581 164.900 M188.581 222.500 L 187.000 224.200 188.700 222.619 C 190.281 221.148,190.584 220.800,190.281 220.800 C 190.216 220.800,189.451 221.565,188.581 222.500 M182.181 228.900 L 180.600 230.600 182.300 229.019 C 183.881 227.548,184.184 227.200,183.881 227.200 C 183.816 227.200,183.051 227.965,182.181 228.900 M118.987 232.900 L 116.600 235.400 119.100 233.013 C 120.475 231.699,121.600 230.574,121.600 230.513 C 121.600 230.217,121.205 230.578,118.987 232.900 M175.375 235.700 L 174.200 237.000 175.500 235.825 C 176.712 234.730,176.984 234.400,176.675 234.400 C 176.606 234.400,176.021 234.985,175.375 235.700 M204.985 245.300 L 203.000 247.400 205.100 245.415 C 206.255 244.323,207.200 243.378,207.200 243.315 C 207.200 243.017,206.829 243.349,204.985 245.300 M198.585 251.700 L 196.600 253.800 198.700 251.815 C 199.855 250.723,200.800 249.778,200.800 249.715 C 200.800 249.417,200.429 249.749,198.585 251.700 M158.786 252.300 L 156.600 254.600 158.900 252.414 C 161.037 250.382,161.383 250.000,161.086 250.000 C 161.024 250.000,159.989 251.035,158.786 252.300 M152.185 258.900 L 150.200 261.000 152.300 259.015 C 153.455 257.923,154.400 256.978,154.400 256.915 C 154.400 256.617,154.029 256.949,152.185 258.900 M305.789 259.700 L 303.000 262.600 305.900 259.811 C 308.594 257.220,308.983 256.800,308.689 256.800 C 308.628 256.800,307.323 258.105,305.789 259.700 M145.381 265.700 L 143.800 267.400 145.500 265.819 C 147.081 264.348,147.384 264.000,147.081 264.000 C 147.016 264.000,146.251 264.765,145.381 265.700 M138.585 272.500 L 136.600 274.600 138.700 272.615 C 139.855 271.523,140.800 270.578,140.800 270.515 C 140.800 270.217,140.429 270.549,138.585 272.500 M132.400 278.600 C 131.428 279.590,130.723 280.400,130.833 280.400 C 130.943 280.400,131.828 279.590,132.800 278.600 C 133.772 277.610,134.477 276.800,134.367 276.800 C 134.257 276.800,133.372 277.610,132.400 278.600 M280.175 324.500 L 279.000 325.800 280.300 324.625 C 281.015 323.979,281.600 323.394,281.600 323.325 C 281.600 323.016,281.270 323.288,280.175 324.500 " stroke="none" fill="#d45c34" fill-rule="evenodd"></path><path id="path4" d="M130.884 65.415 C 130.309 66.067,130.809 66.231,131.442 65.598 C 131.711 65.329,163.999 65.229,228.284 65.298 C 281.326 65.354,324.640 65.265,324.538 65.100 C 324.144 64.462,131.448 64.776,130.884 65.415 M127.179 69.500 C 124.429 72.339,121.141 76.066,123.031 74.200 C 125.215 72.045,130.520 66.400,130.362 66.400 C 130.262 66.400,128.830 67.795,127.179 69.500 M321.578 68.300 L 320.200 69.800 321.700 68.422 C 323.096 67.138,323.384 66.800,323.078 66.800 C 323.012 66.800,322.337 67.475,321.578 68.300 M113.591 83.900 L 110.200 87.400 113.700 84.009 C 115.625 82.144,117.200 80.569,117.200 80.509 C 117.200 80.218,116.741 80.649,113.591 83.900 M307.978 81.900 L 306.600 83.400 308.100 82.022 C 309.496 80.738,309.784 80.400,309.478 80.400 C 309.412 80.400,308.737 81.075,307.978 81.900 M301.586 88.300 L 299.400 90.600 301.700 88.414 C 303.837 86.382,304.183 86.000,303.886 86.000 C 303.824 86.000,302.789 87.035,301.586 88.300 M107.389 90.500 L 104.600 93.400 107.500 90.611 C 110.194 88.020,110.583 87.600,110.289 87.600 C 110.228 87.600,108.923 88.905,107.389 90.500 M146.662 89.900 C 146.495 90.169,202.498 90.166,244.200 89.895 C 253.000 89.838,234.696 89.748,203.524 89.695 C 172.352 89.643,146.764 89.735,146.662 89.900 M142.194 94.076 C 140.217 96.097,139.396 97.089,140.368 96.279 C 141.961 94.953,146.265 90.400,145.926 90.400 C 145.851 90.400,144.171 92.054,142.194 94.076 M294.783 95.061 C 293.802 96.084,293.450 96.594,294.000 96.194 C 294.940 95.511,297.034 93.200,296.714 93.200 C 296.633 93.200,295.764 94.037,294.783 95.061 M254.585 96.500 L 252.600 98.600 254.700 96.615 C 256.651 94.771,256.983 94.400,256.685 94.400 C 256.622 94.400,255.677 95.345,254.585 96.500 M95.849 102.557 L 92.000 106.714 92.000 124.957 C 92.000 139.343,92.106 143.200,92.503 143.200 C 92.780 143.200,97.505 138.655,103.003 133.101 C 110.466 125.561,111.176 124.776,105.806 130.001 C 101.849 133.850,97.349 138.308,95.806 139.907 C 94.263 141.507,92.865 142.812,92.700 142.807 C 92.535 142.803,92.400 134.687,92.400 124.770 L 92.400 106.741 94.687 104.270 C 95.944 102.912,97.692 101.035,98.570 100.100 C 99.448 99.165,100.061 98.400,99.933 98.400 C 99.804 98.400,97.966 100.271,95.849 102.557 M237.523 113.363 C 229.890 121.083,223.242 127.940,222.748 128.600 C 222.255 129.260,221.932 129.710,222.030 129.600 C 222.129 129.490,228.948 122.605,237.183 114.300 C 245.419 105.995,251.987 99.228,251.779 99.263 C 251.570 99.298,245.155 105.643,237.523 113.363 M289.004 100.796 C 288.374 101.454,287.942 102.075,288.044 102.177 C 288.146 102.279,288.726 101.741,289.332 100.981 C 290.687 99.283,290.536 99.197,289.004 100.796 M134.378 101.900 L 133.000 103.400 134.500 102.022 C 135.325 101.263,136.000 100.588,136.000 100.522 C 136.000 100.216,135.662 100.504,134.378 101.900 M308.181 103.016 C 307.510 103.667,307.375 103.854,307.881 103.430 L 308.800 102.661 308.800 121.410 C 308.800 134.034,308.932 140.028,309.204 139.756 C 309.468 139.492,309.572 132.829,309.504 120.592 L 309.400 101.832 308.181 103.016 M278.381 111.502 C 273.442 116.493,270.649 119.411,272.175 117.988 C 276.126 114.303,287.636 102.702,287.487 102.554 C 287.419 102.485,283.321 106.512,278.381 111.502 M302.181 108.900 L 300.600 110.600 302.300 109.019 C 303.881 107.548,304.184 107.200,303.881 107.200 C 303.816 107.200,303.051 107.965,302.181 108.900 M294.723 116.209 C 293.691 117.194,292.979 118.000,293.140 118.000 C 293.301 118.000,294.228 117.190,295.200 116.200 C 297.477 113.880,297.158 113.886,294.723 116.209 M117.610 118.190 C 116.420 119.395,115.526 120.436,115.623 120.505 C 115.721 120.573,116.774 119.588,117.963 118.315 C 120.706 115.381,120.467 115.297,117.610 118.190 M291.638 119.115 C 291.329 119.492,290.159 120.790,289.039 122.000 C 287.455 123.711,287.647 123.580,289.901 121.411 C 291.496 119.877,292.800 118.572,292.800 118.511 C 292.800 118.172,292.123 118.524,291.638 119.115 M268.175 122.100 L 267.000 123.400 268.300 122.225 C 269.015 121.579,269.600 120.994,269.600 120.925 C 269.600 120.616,269.270 120.888,268.175 122.100 M237.200 152.842 C 209.595 180.651,207.322 182.957,207.777 182.700 C 208.872 182.081,267.278 123.171,266.755 123.212 C 266.670 123.219,253.370 136.552,237.200 152.842 M282.185 128.900 L 280.200 131.000 282.300 129.015 C 284.251 127.171,284.583 126.800,284.285 126.800 C 284.222 126.800,283.277 127.745,282.185 128.900 M218.977 132.110 L 216.600 134.600 218.991 132.400 C 220.306 131.190,221.461 130.155,221.557 130.100 C 221.654 130.045,221.648 129.915,221.544 129.810 C 221.440 129.706,220.285 130.741,218.977 132.110 M233.789 177.292 C 209.815 201.323,191.280 219.981,192.600 218.755 C 193.920 217.529,213.540 197.945,236.200 175.234 C 284.318 127.010,277.772 133.600,277.556 133.600 C 277.459 133.600,257.764 153.262,233.789 177.292 M211.110 140.100 C 205.678 145.550,202.986 148.400,203.268 148.400 C 203.356 148.400,206.444 145.340,210.130 141.600 C 213.816 137.860,216.732 134.800,216.611 134.800 C 216.491 134.800,214.015 137.185,211.110 140.100 M307.178 141.900 L 305.800 143.400 307.300 142.022 C 308.696 140.738,308.984 140.400,308.678 140.400 C 308.612 140.400,307.937 141.075,307.178 141.900 M301.200 147.800 C 300.228 148.790,299.523 149.600,299.633 149.600 C 299.743 149.600,300.628 148.790,301.600 147.800 C 302.572 146.810,303.277 146.000,303.167 146.000 C 303.057 146.000,302.172 146.810,301.200 147.800 M199.188 152.300 L 196.600 155.000 199.300 152.412 C 200.785 150.988,202.000 149.773,202.000 149.712 C 202.000 149.417,201.593 149.792,199.188 152.300 M289.797 159.293 C 286.059 163.084,283.900 165.398,285.000 164.434 C 287.562 162.190,297.115 152.400,296.743 152.400 C 296.661 152.400,293.535 155.502,289.797 159.293 M192.386 159.100 L 190.200 161.400 192.500 159.214 C 193.765 158.011,194.800 156.976,194.800 156.914 C 194.800 156.617,194.418 156.963,192.386 159.100 M188.886 162.654 C 188.383 163.174,188.130 163.600,188.324 163.600 C 188.748 163.600,190.197 162.055,189.964 161.851 C 189.874 161.772,189.389 162.133,188.886 162.654 M266.125 183.228 C 256.926 192.483,249.325 200.133,249.233 200.228 C 249.142 200.323,249.145 200.400,249.241 200.400 C 249.337 200.400,257.054 192.750,266.391 183.400 C 275.727 174.050,283.250 166.400,283.108 166.400 C 282.966 166.400,275.324 173.973,266.125 183.228 M181.878 169.813 C 181.260 170.356,180.914 170.800,181.108 170.800 C 181.302 170.800,181.883 170.350,182.400 169.800 C 183.595 168.528,183.331 168.534,181.878 169.813 M173.289 178.258 C 172.567 178.996,172.129 179.600,172.314 179.600 C 172.737 179.600,175.002 177.260,174.771 177.062 C 174.677 176.982,174.010 177.520,173.289 178.258 M168.981 182.900 L 167.400 184.600 169.100 183.019 C 170.681 181.548,170.984 181.200,170.681 181.200 C 170.616 181.200,169.851 181.965,168.981 182.900 M200.795 189.500 L 194.600 195.800 200.900 189.605 C 204.365 186.198,207.200 183.363,207.200 183.305 C 207.200 183.019,206.551 183.647,200.795 189.500 M151.600 200.161 C 143.350 208.539,137.824 214.226,139.319 212.797 C 148.037 204.471,167.757 184.377,166.733 184.863 C 166.660 184.898,159.850 191.782,151.600 200.161 M184.997 205.300 L 175.800 214.600 185.100 205.403 C 190.215 200.345,194.400 196.160,194.400 196.103 C 194.400 195.820,193.542 196.658,184.997 205.300 M245.411 203.989 C 243.889 205.522,242.724 206.831,242.822 206.897 C 242.920 206.963,244.247 205.708,245.771 204.108 C 249.301 200.403,249.052 200.320,245.411 203.989 M237.409 211.991 C 236.331 213.086,235.527 214.039,235.624 214.108 C 235.721 214.178,236.682 213.282,237.760 212.118 C 240.239 209.440,240.005 209.356,237.409 211.991 M172.191 218.100 L 169.000 221.400 172.300 218.209 C 175.365 215.246,175.782 214.800,175.491 214.800 C 175.430 214.800,173.945 216.285,172.191 218.100 M129.784 222.216 C 126.273 225.854,123.400 228.875,123.400 228.929 C 123.400 229.025,127.113 225.347,133.502 218.921 C 135.318 217.094,136.661 215.600,136.486 215.600 C 136.311 215.600,133.295 218.577,129.784 222.216 M231.407 217.993 C 230.552 218.869,229.930 219.645,230.026 219.718 C 230.122 219.791,230.898 219.074,231.752 218.125 C 233.701 215.959,233.477 215.873,231.407 217.993 M188.778 222.700 L 187.400 224.200 188.900 222.822 C 190.296 221.538,190.584 221.200,190.278 221.200 C 190.212 221.200,189.537 221.875,188.778 222.700 M158.297 231.903 C 153.294 236.910,149.200 241.103,149.200 241.222 C 149.200 241.341,153.295 237.326,158.300 232.301 C 168.691 221.868,167.783 222.800,167.563 222.800 C 167.470 222.800,163.300 226.896,158.297 231.903 M176.200 234.901 C 170.260 240.874,164.696 246.579,163.836 247.580 C 162.211 249.472,182.473 229.243,185.552 225.900 C 189.199 221.940,186.654 224.389,176.200 234.901 M221.578 228.300 L 220.200 229.800 221.700 228.422 C 222.525 227.663,223.200 226.988,223.200 226.922 C 223.200 226.616,222.862 226.904,221.578 228.300 M119.600 232.600 C 117.961 234.250,116.710 235.600,116.820 235.600 C 116.930 235.600,118.361 234.250,120.000 232.600 C 121.639 230.950,122.890 229.600,122.780 229.600 C 122.670 229.600,121.239 230.950,119.600 232.600 M209.798 240.077 C 206.059 243.859,204.136 245.929,205.525 244.675 C 207.996 242.445,217.034 233.200,216.743 233.200 C 216.662 233.200,213.537 236.295,209.798 240.077 M112.788 239.500 L 110.200 242.200 112.900 239.612 C 115.408 237.207,115.783 236.800,115.488 236.800 C 115.427 236.800,114.212 238.015,112.788 239.500 M144.810 245.390 C 143.620 246.595,142.726 247.636,142.823 247.705 C 142.921 247.773,143.974 246.788,145.163 245.515 C 147.906 242.581,147.667 242.497,144.810 245.390 M201.775 248.500 L 200.600 249.800 201.900 248.625 C 203.112 247.530,203.384 247.200,203.075 247.200 C 203.006 247.200,202.421 247.785,201.775 248.500 M138.388 251.900 L 135.800 254.600 138.590 252.000 C 140.124 250.570,141.459 249.355,141.556 249.300 C 141.654 249.245,141.563 249.200,141.355 249.200 C 141.147 249.200,139.812 250.415,138.388 251.900 M158.800 252.600 C 157.161 254.250,155.910 255.600,156.020 255.600 C 156.130 255.600,157.561 254.250,159.200 252.600 C 160.839 250.950,162.090 249.600,161.980 249.600 C 161.870 249.600,160.439 250.950,158.800 252.600 M195.672 254.300 C 193.194 256.885,184.829 265.390,177.083 273.200 L 163.000 287.400 178.126 272.400 C 191.527 259.111,200.790 249.600,200.332 249.600 C 200.247 249.600,198.149 251.715,195.672 254.300 M131.811 258.389 C 130.289 259.922,129.124 261.227,129.222 261.289 C 129.320 261.350,130.675 260.095,132.234 258.500 C 133.792 256.905,134.957 255.600,134.823 255.600 C 134.689 255.600,133.333 256.855,131.811 258.389 M152.400 259.000 C 150.761 260.650,149.510 262.000,149.620 262.000 C 149.730 262.000,151.161 260.650,152.800 259.000 C 154.439 257.350,155.690 256.000,155.580 256.000 C 155.470 256.000,154.039 257.350,152.400 259.000 M293.122 272.500 C 284.435 281.135,281.628 283.970,286.883 278.800 C 292.139 273.630,299.265 266.675,302.719 263.345 L 309.000 257.289 309.104 275.533 L 309.208 293.777 305.604 297.396 C 303.622 299.386,302.000 301.121,302.000 301.251 C 302.000 301.382,303.710 299.747,305.800 297.620 L 309.600 293.752 309.600 275.276 C 309.600 265.114,309.446 256.800,309.258 256.800 C 309.070 256.800,301.808 263.865,293.122 272.500 M93.714 258.642 C 93.227 259.169,92.971 259.600,93.145 259.600 C 93.318 259.600,93.883 259.150,94.400 258.600 C 94.917 258.050,95.173 257.619,94.970 257.642 C 94.766 257.665,94.201 258.115,93.714 258.642 M92.890 278.676 C 92.840 288.838,92.935 297.236,93.100 297.339 C 93.373 297.507,93.367 283.688,93.088 266.800 C 93.028 263.170,92.939 268.514,92.890 278.676 M145.986 265.500 L 143.800 267.800 146.100 265.614 C 148.237 263.582,148.583 263.200,148.286 263.200 C 148.224 263.200,147.189 264.235,145.986 265.500 M118.607 271.593 C 117.752 272.469,117.130 273.246,117.226 273.320 C 117.322 273.393,118.161 272.677,119.091 271.727 C 120.021 270.777,120.642 270.000,120.472 270.000 C 120.302 270.000,119.463 270.717,118.607 271.593 M138.786 272.700 L 136.600 275.000 138.900 272.814 C 141.037 270.782,141.383 270.400,141.086 270.400 C 141.024 270.400,139.989 271.435,138.786 272.700 M112.207 277.993 C 111.352 278.869,110.730 279.639,110.826 279.705 C 110.922 279.770,111.774 279.054,112.720 278.112 C 113.665 277.170,114.287 276.400,114.101 276.400 C 113.915 276.400,113.063 277.117,112.207 277.993 M132.386 279.100 L 130.200 281.400 132.500 279.214 C 134.637 277.182,134.983 276.800,134.686 276.800 C 134.624 276.800,133.589 277.835,132.386 279.100 M125.600 285.800 C 124.628 286.790,123.923 287.600,124.033 287.600 C 124.143 287.600,125.028 286.790,126.000 285.800 C 126.972 284.810,127.677 284.000,127.567 284.000 C 127.457 284.000,126.572 284.810,125.600 285.800 M158.211 291.989 C 156.689 293.522,155.524 294.827,155.622 294.889 C 155.720 294.950,157.075 293.695,158.634 292.100 C 160.192 290.505,161.357 289.200,161.223 289.200 C 161.089 289.200,159.733 290.455,158.211 291.989 M119.200 292.200 C 118.228 293.190,117.523 294.000,117.633 294.000 C 117.743 294.000,118.628 293.190,119.600 292.200 C 120.572 291.210,121.277 290.400,121.167 290.400 C 121.057 290.400,120.172 291.210,119.200 292.200 M272.797 292.403 C 272.288 292.844,271.960 293.293,272.068 293.401 C 272.175 293.509,272.686 293.148,273.201 292.598 C 274.328 291.400,274.087 291.283,272.797 292.403 M151.481 298.717 C 150.667 299.551,150.000 300.353,150.000 300.499 C 150.000 300.762,151.111 299.706,152.562 298.063 C 153.823 296.635,153.068 297.091,151.481 298.717 M258.786 306.300 L 256.600 308.600 258.900 306.414 C 261.037 304.382,261.383 304.000,261.086 304.000 C 261.024 304.000,259.989 305.035,258.786 306.300 M290.600 313.067 C 287.300 316.478,284.544 319.422,284.475 319.610 C 284.406 319.797,287.151 317.098,290.575 313.613 C 295.854 308.239,297.297 306.641,296.700 306.832 C 296.645 306.850,293.900 309.655,290.600 313.067 M142.404 308.195 C 141.598 309.166,142.218 310.008,143.687 309.936 L 145.000 309.872 143.700 309.711 C 142.358 309.544,142.043 308.917,142.880 308.080 C 143.144 307.816,143.256 307.600,143.129 307.600 C 143.002 307.600,142.676 307.868,142.404 308.195 M102.474 309.120 C 101.964 309.648,101.618 310.152,101.705 310.239 C 101.792 310.326,102.285 309.948,102.800 309.400 C 103.315 308.852,103.661 308.348,103.568 308.281 C 103.476 308.214,102.983 308.592,102.474 309.120 M95.734 315.863 C 95.038 316.598,94.600 317.200,94.760 317.200 C 95.148 317.200,97.389 314.847,97.171 314.667 C 97.077 314.589,96.430 315.128,95.734 315.863 M89.225 322.569 L 87.850 324.200 89.405 322.713 C 90.260 321.896,90.879 321.162,90.780 321.083 C 90.681 321.003,89.981 321.672,89.225 322.569 M276.460 327.999 L 269.942 334.798 202.271 334.900 L 134.600 335.002 202.250 335.101 L 269.900 335.200 276.050 328.901 C 281.729 323.084,283.457 321.200,283.111 321.200 C 283.038 321.200,280.044 324.259,276.460 327.999 M82.306 329.411 C 81.484 330.175,80.954 330.800,81.127 330.800 C 81.301 330.800,82.054 330.170,82.800 329.400 C 84.541 327.603,84.243 327.610,82.306 329.411 M77.443 334.233 C 77.309 334.581,77.200 334.941,77.200 335.033 C 77.200 335.125,85.345 335.157,95.300 335.104 L 113.400 335.008 95.514 334.900 C 79.864 334.805,77.657 334.717,77.857 334.196 C 77.983 333.868,77.996 333.600,77.886 333.600 C 77.776 333.600,77.576 333.885,77.443 334.233 " stroke="none" fill="#d86434" fill-rule="evenodd"></path></g></svg>